<svg width="1929" height="1028" viewBox="0 0 1929 1028" fill="none" xmlns="http://www.w3.org/2000/svg">
<g clip-path="url(#clip0_503_41654)">
<rect width="1929" height="1028" fill="#F6F7FB"/>
<g clip-path="url(#clip1_503_41654)">
<rect width="1944" height="1184" transform="translate(-15)" fill="#F6F7FB"/>
<g opacity="0.3">
<path d="M6.68848 0C6.68848 10.59 6.68848 727.079 6.68848 1084" stroke="#DCDFEC" stroke-width="1.29304"/>
<path d="M28.377 0C26.5659 10.59 27.6223 727.079 28.377 1084" stroke="#DCDFEC" stroke-width="1.29304"/>
<path d="M49.0659 0C49.0659 10.59 49.0659 727.079 49.0659 1084" stroke="#DCDFEC" stroke-width="1.29304"/>
<path d="M70.7544 0C68.9433 10.59 69.9998 727.079 70.7544 1084" stroke="#DCDFEC" stroke-width="1.29304"/>
<path d="M92.4429 0C90.6318 10.59 91.6882 727.079 92.4429 1084" stroke="#DCDFEC" stroke-width="1.29304"/>
<path d="M114.131 0C112.32 10.59 113.377 727.079 114.131 1084" stroke="#DCDFEC" stroke-width="1.29304"/>
<path d="M135.82 0C134.009 10.59 135.065 727.079 135.82 1084" stroke="#DCDFEC" stroke-width="1.29304"/>
<path d="M157.509 0C155.698 10.59 156.754 727.079 157.509 1084" stroke="#DCDFEC" stroke-width="1.29304"/>
<path d="M179.197 0C177.386 10.59 178.443 727.079 179.197 1084" stroke="#DCDFEC" stroke-width="1.29304"/>
<path d="M200.886 0C199.075 10.59 200.131 727.079 200.886 1084" stroke="#DCDFEC" stroke-width="1.29304"/>
<path d="M222.574 0C220.763 10.59 221.82 727.079 222.574 1084" stroke="#DCDFEC" stroke-width="1.29304"/>
<path d="M243.263 0C243.263 10.59 243.263 727.079 243.263 1084" stroke="#DCDFEC" stroke-width="1.29304"/>
<path d="M264.952 0C263.141 10.59 264.197 727.079 264.952 1084" stroke="#DCDFEC" stroke-width="1.29304"/>
<path d="M285.64 0C285.64 10.59 285.64 727.079 285.64 1084" stroke="#DCDFEC" stroke-width="1.29304"/>
<path d="M307.329 0C305.518 10.59 306.574 727.079 307.329 1084" stroke="#DCDFEC" stroke-width="1.29304"/>
<path d="M329.017 0C327.206 10.59 328.262 727.079 329.017 1084" stroke="#DCDFEC" stroke-width="1.29304"/>
<path d="M350.706 0C348.895 10.59 349.951 727.079 350.706 1084" stroke="#DCDFEC" stroke-width="1.29304"/>
<path d="M372.395 0C370.583 10.59 371.64 727.079 372.395 1084" stroke="#DCDFEC" stroke-width="1.29304"/>
<path d="M394.083 0C392.272 10.59 393.328 727.079 394.083 1084" stroke="#DCDFEC" stroke-width="1.29304"/>
<path d="M415.771 0C413.96 10.59 415.017 727.079 415.771 1084" stroke="#DCDFEC" stroke-width="1.29304"/>
<path d="M437.46 0C435.649 10.59 436.705 727.079 437.46 1084" stroke="#DCDFEC" stroke-width="1.29304"/>
<path d="M459.148 0C457.337 10.59 458.394 727.079 459.148 1084" stroke="#DCDFEC" stroke-width="1.29304"/>
<path d="M479.837 0C479.837 10.59 479.837 727.079 479.837 1084" stroke="#DCDFEC" stroke-width="1.29304"/>
<path d="M501.526 0C499.715 10.59 500.771 727.079 501.526 1084" stroke="#DCDFEC" stroke-width="1.29304"/>
<path d="M522.214 0C522.214 10.59 522.214 727.079 522.214 1084" stroke="#DCDFEC" stroke-width="1.29304"/>
<path d="M543.903 0C542.092 10.59 543.148 727.079 543.903 1084" stroke="#DCDFEC" stroke-width="1.29304"/>
<path d="M565.592 0C563.781 10.59 564.837 727.079 565.592 1084" stroke="#DCDFEC" stroke-width="1.29304"/>
<path d="M587.28 0C585.469 10.59 586.526 727.079 587.28 1084" stroke="#DCDFEC" stroke-width="1.29304"/>
<path d="M608.969 0C607.158 10.59 608.214 727.079 608.969 1084" stroke="#DCDFEC" stroke-width="1.29304"/>
<path d="M630.657 0C628.846 10.59 629.903 727.079 630.657 1084" stroke="#DCDFEC" stroke-width="1.29304"/>
<path d="M652.346 0C650.535 10.59 651.592 727.079 652.346 1084" stroke="#DCDFEC" stroke-width="1.29304"/>
<path d="M674.035 0C672.224 10.59 673.28 727.079 674.035 1084" stroke="#DCDFEC" stroke-width="1.29304"/>
<path d="M695.723 0C693.912 10.59 694.969 727.079 695.723 1084" stroke="#DCDFEC" stroke-width="1.29304"/>
<path d="M716.412 0C716.412 10.59 716.412 727.079 716.412 1084" stroke="#DCDFEC" stroke-width="1.29304"/>
<path d="M738.101 0C736.289 10.59 737.346 727.079 738.101 1084" stroke="#DCDFEC" stroke-width="1.29304"/>
<path d="M758.789 0C758.789 10.59 758.789 727.079 758.789 1084" stroke="#DCDFEC" stroke-width="1.29304"/>
<path d="M780.478 0C778.666 10.59 779.723 727.079 780.478 1084" stroke="#DCDFEC" stroke-width="1.29304"/>
<path d="M802.166 0C800.355 10.59 801.411 727.079 802.166 1084" stroke="#DCDFEC" stroke-width="1.29304"/>
<path d="M823.855 0C822.044 10.59 823.1 727.079 823.855 1084" stroke="#DCDFEC" stroke-width="1.29304"/>
<path d="M845.543 0C843.732 10.59 844.789 727.079 845.543 1084" stroke="#DCDFEC" stroke-width="1.29304"/>
<path d="M867.232 0C865.421 10.59 866.477 727.079 867.232 1084" stroke="#DCDFEC" stroke-width="1.29304"/>
<path d="M888.92 0C887.109 10.59 888.166 727.079 888.92 1084" stroke="#DCDFEC" stroke-width="1.29304"/>
<path d="M910.609 0C908.798 10.59 909.855 727.079 910.609 1084" stroke="#DCDFEC" stroke-width="1.29304"/>
<path d="M932.298 0C930.487 10.59 931.543 727.079 932.298 1084" stroke="#DCDFEC" stroke-width="1.29304"/>
<path d="M952.986 0C952.986 10.59 952.986 727.079 952.986 1084" stroke="#DCDFEC" stroke-width="1.29304"/>
<path d="M974.675 0C972.864 10.59 973.92 727.079 974.675 1084" stroke="#DCDFEC" stroke-width="1.29304"/>
<path d="M995.364 0C995.364 10.59 995.364 727.079 995.364 1084" stroke="#DCDFEC" stroke-width="1.29304"/>
<path d="M1017.05 0C1015.24 10.59 1016.3 727.079 1017.05 1084" stroke="#DCDFEC" stroke-width="1.29304"/>
<path d="M1038.74 0C1036.93 10.59 1037.99 727.079 1038.74 1084" stroke="#DCDFEC" stroke-width="1.29304"/>
<path d="M1060.43 0C1058.62 10.59 1059.67 727.079 1060.43 1084" stroke="#DCDFEC" stroke-width="1.29304"/>
<path d="M1082.12 0C1080.31 10.59 1081.36 727.079 1082.12 1084" stroke="#DCDFEC" stroke-width="1.29304"/>
<path d="M1103.81 0C1102 10.59 1103.05 727.079 1103.81 1084" stroke="#DCDFEC" stroke-width="1.29304"/>
<path d="M1125.5 0C1123.68 10.59 1124.74 727.079 1125.5 1084" stroke="#DCDFEC" stroke-width="1.29304"/>
<path d="M1147.18 0C1145.37 10.59 1146.43 727.079 1147.18 1084" stroke="#DCDFEC" stroke-width="1.29304"/>
<path d="M1168.87 0C1167.06 10.59 1168.12 727.079 1168.87 1084" stroke="#DCDFEC" stroke-width="1.29304"/>
<path d="M1189.56 0C1189.56 10.59 1189.56 727.079 1189.56 1084" stroke="#DCDFEC" stroke-width="1.29304"/>
<path d="M1211.25 0C1209.44 10.59 1210.49 727.079 1211.25 1084" stroke="#DCDFEC" stroke-width="1.29304"/>
<path d="M1231.94 0C1231.94 10.59 1231.94 727.079 1231.94 1084" stroke="#DCDFEC" stroke-width="1.29304"/>
<path d="M1253.63 0C1251.82 10.59 1252.87 727.079 1253.63 1084" stroke="#DCDFEC" stroke-width="1.29304"/>
<path d="M1275.32 0C1273.5 10.59 1274.56 727.079 1275.32 1084" stroke="#DCDFEC" stroke-width="1.29304"/>
<path d="M1297 0C1295.19 10.59 1296.25 727.079 1297 1084" stroke="#DCDFEC" stroke-width="1.29304"/>
<path d="M1318.69 0C1316.88 10.59 1317.94 727.079 1318.69 1084" stroke="#DCDFEC" stroke-width="1.29304"/>
<path d="M1340.38 0C1338.57 10.59 1339.63 727.079 1340.38 1084" stroke="#DCDFEC" stroke-width="1.29304"/>
<path d="M1362.07 0C1360.26 10.59 1361.32 727.079 1362.07 1084" stroke="#DCDFEC" stroke-width="1.29304"/>
<path d="M1383.76 0C1381.95 10.59 1383 727.079 1383.76 1084" stroke="#DCDFEC" stroke-width="1.29304"/>
<path d="M1405.45 0C1403.64 10.59 1404.69 727.079 1405.45 1084" stroke="#DCDFEC" stroke-width="1.29304"/>
<path d="M1426.14 0C1426.14 10.59 1426.14 727.079 1426.14 1084" stroke="#DCDFEC" stroke-width="1.29304"/>
<path d="M1447.82 0C1446.01 10.59 1447.07 727.079 1447.82 1084" stroke="#DCDFEC" stroke-width="1.29304"/>
<path d="M1468.51 0C1468.51 10.59 1468.51 727.079 1468.51 1084" stroke="#DCDFEC" stroke-width="1.29304"/>
<path d="M1490.2 0C1488.39 10.59 1489.45 727.079 1490.2 1084" stroke="#DCDFEC" stroke-width="1.29304"/>
<path d="M1511.89 0C1510.08 10.59 1511.14 727.079 1511.89 1084" stroke="#DCDFEC" stroke-width="1.29304"/>
<path d="M1533.58 0C1531.77 10.59 1532.82 727.079 1533.58 1084" stroke="#DCDFEC" stroke-width="1.29304"/>
<path d="M1555.27 0C1553.46 10.59 1554.51 727.079 1555.27 1084" stroke="#DCDFEC" stroke-width="1.29304"/>
<path d="M1576.96 0C1575.14 10.59 1576.2 727.079 1576.96 1084" stroke="#DCDFEC" stroke-width="1.29304"/>
<path d="M1598.64 0C1596.83 10.59 1597.89 727.079 1598.64 1084" stroke="#DCDFEC" stroke-width="1.29304"/>
<path d="M1620.33 0C1618.52 10.59 1619.58 727.079 1620.33 1084" stroke="#DCDFEC" stroke-width="1.29304"/>
<path d="M1642.02 0C1640.21 10.59 1641.27 727.079 1642.02 1084" stroke="#DCDFEC" stroke-width="1.29304"/>
<path d="M1662.71 0C1662.71 10.59 1662.71 727.079 1662.71 1084" stroke="#DCDFEC" stroke-width="1.29304"/>
<path d="M1684.4 0C1682.59 10.59 1683.64 727.079 1684.4 1084" stroke="#DCDFEC" stroke-width="1.29304"/>
<path d="M1705.09 0C1705.09 10.59 1705.09 727.079 1705.09 1084" stroke="#DCDFEC" stroke-width="1.29304"/>
<path d="M1726.78 0C1724.96 10.59 1726.02 727.079 1726.78 1084" stroke="#DCDFEC" stroke-width="1.29304"/>
<path d="M1748.46 0C1746.65 10.59 1747.71 727.079 1748.46 1084" stroke="#DCDFEC" stroke-width="1.29304"/>
<path d="M1770.15 0C1768.34 10.59 1769.4 727.079 1770.15 1084" stroke="#DCDFEC" stroke-width="1.29304"/>
<path d="M1791.84 0C1790.03 10.59 1791.09 727.079 1791.84 1084" stroke="#DCDFEC" stroke-width="1.29304"/>
<path d="M1813.53 0C1811.72 10.59 1812.78 727.079 1813.53 1084" stroke="#DCDFEC" stroke-width="1.29304"/>
<path d="M1835.22 0C1833.41 10.59 1834.46 727.079 1835.22 1084" stroke="#DCDFEC" stroke-width="1.29304"/>
<path d="M1856.91 0C1855.1 10.59 1856.15 727.079 1856.91 1084" stroke="#DCDFEC" stroke-width="1.29304"/>
<path d="M1878.6 0C1876.79 10.59 1877.84 727.079 1878.6 1084" stroke="#DCDFEC" stroke-width="1.29304"/>
<path d="M1899.28 0C1899.28 10.59 1899.28 727.079 1899.28 1084" stroke="#DCDFEC" stroke-width="1.29304"/>
<path d="M1920.97 0C1919.16 10.59 1920.22 727.079 1920.97 1084" stroke="#DCDFEC" stroke-width="1.29304"/>
<path d="M-15 -0.582329C3.99159 0.969315 1288.91 0.0641896 1929 -0.582329" stroke="#DCDFEC" stroke-width="1.29304"/>
<path d="M-15 20.9631C3.99159 22.5147 1288.91 21.6096 1929 20.9631" stroke="#DCDFEC" stroke-width="1.29304"/>
<path d="M-15 42.5085C3.99159 44.0601 1288.91 43.155 1929 42.5085" stroke="#DCDFEC" stroke-width="1.29304"/>
<path d="M-15 64.0539C3.99159 65.6055 1288.91 64.7004 1929 64.0539" stroke="#DCDFEC" stroke-width="1.29304"/>
<path d="M-15 85.5988C3.99159 87.1505 1288.91 86.2453 1929 85.5988" stroke="#DCDFEC" stroke-width="1.29304"/>
<path d="M-15 107.144C3.99159 108.696 1288.91 107.791 1929 107.144" stroke="#DCDFEC" stroke-width="1.29304"/>
<path d="M-15 128.69C3.99159 130.241 1288.91 129.336 1929 128.69" stroke="#DCDFEC" stroke-width="1.29304"/>
<path d="M-15 150.235C3.99159 151.787 1288.91 150.882 1929 150.235" stroke="#DCDFEC" stroke-width="1.29304"/>
<path d="M-15 171.78C3.99159 173.332 1288.91 172.427 1929 171.78" stroke="#DCDFEC" stroke-width="1.29304"/>
<path d="M-15 193.325C3.99159 194.877 1288.91 193.972 1929 193.325" stroke="#DCDFEC" stroke-width="1.29304"/>
<path d="M-15 214.871C3.99159 216.422 1288.91 215.517 1929 214.871" stroke="#DCDFEC" stroke-width="1.29304"/>
<path d="M-15 236.416C3.99159 237.968 1288.91 237.063 1929 236.416" stroke="#DCDFEC" stroke-width="1.29304"/>
<path d="M-15 257.962C3.99159 259.513 1288.91 258.608 1929 257.962" stroke="#DCDFEC" stroke-width="1.29304"/>
<path d="M-15 279.507C3.99159 281.059 1288.91 280.154 1929 279.507" stroke="#DCDFEC" stroke-width="1.29304"/>
<path d="M-15 301.052C3.99159 302.604 1288.91 301.699 1929 301.052" stroke="#DCDFEC" stroke-width="1.29304"/>
<path d="M-15 322.597C3.99159 324.149 1288.91 323.244 1929 322.597" stroke="#DCDFEC" stroke-width="1.29304"/>
<path d="M-15 344.143C3.99159 345.694 1288.91 344.789 1929 344.143" stroke="#DCDFEC" stroke-width="1.29304"/>
<path d="M-15 365.688C3.99159 367.24 1288.91 366.335 1929 365.688" stroke="#DCDFEC" stroke-width="1.29304"/>
<path d="M-15 387.234C3.99159 388.785 1288.91 387.88 1929 387.234" stroke="#DCDFEC" stroke-width="1.29304"/>
<path d="M-15 408.779C3.99159 410.331 1288.91 409.426 1929 408.779" stroke="#DCDFEC" stroke-width="1.29304"/>
<path d="M-15 430.324C3.99159 431.876 1288.91 430.97 1929 430.324" stroke="#DCDFEC" stroke-width="1.29304"/>
<path d="M-15 451.869C3.99159 453.421 1288.91 452.516 1929 451.869" stroke="#DCDFEC" stroke-width="1.29304"/>
<path d="M-15 473.415C3.99159 474.966 1288.91 474.061 1929 473.415" stroke="#DCDFEC" stroke-width="1.29304"/>
<path d="M-15 494.96C3.99159 496.512 1288.91 495.607 1929 494.96" stroke="#DCDFEC" stroke-width="1.29304"/>
<path d="M-15 516.506C3.99159 518.057 1288.91 517.152 1929 516.506" stroke="#DCDFEC" stroke-width="1.29304"/>
<path d="M-15 538.051C3.99159 539.603 1288.91 538.697 1929 538.051" stroke="#DCDFEC" stroke-width="1.29304"/>
<path d="M-15 559.596C3.99159 561.148 1288.91 560.243 1929 559.596" stroke="#DCDFEC" stroke-width="1.29304"/>
<path d="M-15 581.141C3.99159 582.693 1288.91 581.788 1929 581.141" stroke="#DCDFEC" stroke-width="1.29304"/>
<path d="M-15 602.687C3.99159 604.238 1288.91 603.333 1929 602.687" stroke="#DCDFEC" stroke-width="1.29304"/>
<path d="M-15 624.232C3.99159 625.784 1288.91 624.879 1929 624.232" stroke="#DCDFEC" stroke-width="1.29304"/>
<path d="M-15 645.778C3.99159 647.329 1288.91 646.424 1929 645.778" stroke="#DCDFEC" stroke-width="1.29304"/>
<path d="M-15 667.323C3.99159 668.875 1288.91 667.969 1929 667.323" stroke="#DCDFEC" stroke-width="1.29304"/>
<path d="M-15 688.868C3.99159 690.42 1288.91 689.515 1929 688.868" stroke="#DCDFEC" stroke-width="1.29304"/>
<path d="M-15 710.414C3.99159 711.965 1288.91 711.06 1929 710.414" stroke="#DCDFEC" stroke-width="1.29304"/>
<path d="M-15 731.959C3.99159 733.51 1288.91 732.605 1929 731.959" stroke="#DCDFEC" stroke-width="1.29304"/>
<path d="M-15 753.504C3.99159 755.056 1288.91 754.151 1929 753.504" stroke="#DCDFEC" stroke-width="1.29304"/>
<path d="M-15 775.05C3.99159 776.601 1288.91 775.696 1929 775.05" stroke="#DCDFEC" stroke-width="1.29304"/>
<path d="M-15 796.595C3.99159 798.147 1288.91 797.241 1929 796.595" stroke="#DCDFEC" stroke-width="1.29304"/>
<path d="M-15 818.14C3.99159 819.692 1288.91 818.787 1929 818.14" stroke="#DCDFEC" stroke-width="1.29304"/>
<path d="M-15 839.686C3.99159 841.237 1288.91 840.332 1929 839.686" stroke="#DCDFEC" stroke-width="1.29304"/>
<path d="M-15 861.231C3.99159 862.783 1288.91 861.878 1929 861.231" stroke="#DCDFEC" stroke-width="1.29304"/>
<path d="M-15 882.777C3.99159 884.328 1288.91 883.423 1929 882.777" stroke="#DCDFEC" stroke-width="1.29304"/>
<path d="M-15 904.322C3.99159 905.874 1288.91 904.968 1929 904.322" stroke="#DCDFEC" stroke-width="1.29304"/>
<path d="M-15 925.867C3.99159 927.419 1288.91 926.513 1929 925.867" stroke="#DCDFEC" stroke-width="1.29304"/>
<path d="M-15 947.412C3.99159 948.964 1288.91 948.059 1929 947.412" stroke="#DCDFEC" stroke-width="1.29304"/>
<path d="M-15 968.958C3.99159 970.509 1288.91 969.604 1929 968.958" stroke="#DCDFEC" stroke-width="1.29304"/>
</g>
</g>
<circle cx="1042.15" cy="570.356" r="0.982186" fill="#D1DAFF"/>
<circle cx="1042.15" cy="570.356" r="0.982186" fill="#D1DAFF"/>
<circle cx="1042.15" cy="570.356" r="0.982186" fill="#D1DAFF"/>
<circle cx="1042.15" cy="570.356" r="0.982186" fill="#D1DAFF"/>
<circle cx="1042.15" cy="570.356" r="0.982186" fill="#D1DAFF"/>
<circle cx="1042.15" cy="570.356" r="0.982186" fill="#D1DAFF"/>
<circle cx="1042.15" cy="570.356" r="0.982186" fill="#D1DAFF"/>
<circle cx="1042.15" cy="570.356" r="0.982186" fill="#D1DAFF"/>
<circle cx="1042.15" cy="570.356" r="0.982186" fill="#D1DAFF"/>
<circle cx="1042.15" cy="570.356" r="0.982186" fill="#D1DAFF"/>
</g>
<defs>
<clipPath id="clip0_503_41654">
<rect width="1929" height="1028" fill="white"/>
</clipPath>
<clipPath id="clip1_503_41654">
<rect width="1944" height="1184" fill="white" transform="translate(-15)"/>
</clipPath>
</defs>
</svg>
