<svg width="20" height="18" viewBox="0 0 20 18" fill="none" xmlns="http://www.w3.org/2000/svg">
<path d="M12.0956 8.44213H5.93243C5.63024 8.44213 5.38526 8.69399 5.38526 9.00467C5.38526 9.31534 5.63024 9.56718 5.93243 9.56718H11.8024L10.0737 16.1998H9.0031C5.13539 16.1998 2 12.9764 2 9.00005C2 5.02373 5.13539 1.80029 9.0031 1.80029H13.8267L12.0956 8.44213Z" fill="#00D2D2"/>
<path d="M14.2465 16.1998H11.2811L13.0098 9.56718C14.5101 9.56718 15.6057 10.9849 15.2273 12.4367L14.2465 16.1998Z" fill="#00D2D2"/>
<path d="M17.0163 5.57259C16.5758 7.2627 15.0496 8.44213 13.303 8.44213L15.034 1.80029H17.9995L17.0163 5.57259Z" fill="#00D2D2"/>
</svg>
