<svg width="187" height="37" viewBox="0 0 187 37" fill="none" xmlns="http://www.w3.org/2000/svg">
<path d="M157.044 14.5045C156.303 11.3825 153.69 9.27645 149.968 9.27645C145.872 9.27645 142.625 12.5764 142.625 17.2854C142.625 21.9944 145.872 25.2721 149.968 25.2721C153.69 25.2721 156.303 23.166 157.044 20.0663H155.432C154.755 22.291 152.754 23.9002 149.968 23.9002C146.743 23.9002 144.194 21.364 144.194 17.278C144.194 13.1919 146.743 10.6335 149.968 10.6335C152.754 10.6335 154.762 12.2724 155.432 14.4897H157.044V14.5045Z" fill="black"/>
<path fill-rule="evenodd" clip-rule="evenodd" d="M159.42 25.1386V9.45443H164.733C167.915 9.45443 169.571 11.249 169.571 14.0077C169.571 16.2546 168.325 18.1382 165.496 18.5164L169.981 25.1386H168.152L163.797 18.5906H160.946V25.1386H159.42ZM164.387 10.7818H160.946V17.3076H164.409C166.914 17.3076 168.001 15.9135 168.001 14.0077C168.001 12.1018 166.957 10.7744 164.387 10.7744V10.7818Z" fill="black"/>
<path d="M171.637 9.65465H173.249L179.066 23.0696L184.883 9.65465H186.517V25.1386H184.991V12.7767L179.635 25.1386H178.526L173.17 12.8212V25.1386H171.644V9.65465H171.637Z" fill="black"/>
<path fill-rule="evenodd" clip-rule="evenodd" d="M100.504 12.5468C102.124 12.5468 103.499 13.3032 104.24 14.4378V8.67578H107.998V25.1386H104.24V23.3588C103.585 24.4934 102.296 25.3166 100.482 25.3166C97.4876 25.3166 95.1263 22.8249 95.1263 18.9094C95.1263 14.9939 97.4876 12.5468 100.504 12.5468ZM98.9274 18.9094C98.9274 20.8894 100.173 22.0018 101.591 22.0018C103.009 22.0018 104.262 20.9117 104.262 18.9317C104.262 16.9517 103.016 15.8616 101.591 15.8616C100.166 15.8616 98.9274 16.9294 98.9274 18.9094Z" fill="black"/>
<path fill-rule="evenodd" clip-rule="evenodd" d="M118.76 14.4823C118.105 13.3922 116.817 12.5468 114.981 12.5468C111.986 12.5468 109.625 14.9939 109.625 18.9094C109.625 22.8249 111.986 25.3166 114.981 25.3166C116.795 25.3166 118.084 24.4712 118.76 23.3811V25.1386H122.497V12.7247H118.76V14.4823ZM116.097 22.0018C114.679 22.0018 113.426 20.8894 113.426 18.9094C113.426 16.9294 114.671 15.8616 116.097 15.8616C117.522 15.8616 118.76 16.9517 118.76 18.9317C118.76 20.9117 117.515 22.0018 116.097 22.0018Z" fill="black"/>
<path d="M128.63 24.3155L126.377 29.5658H130.401L137.528 12.7247H133.547L130.66 20.222L127.838 12.7247H123.685L128.623 24.3155H128.63Z" fill="black"/>
<path d="M87.5098 15.7726C88.9064 15.7726 89.8495 16.707 89.8495 18.3978V25.1386H93.5641V17.8861C93.5641 14.549 91.6852 12.5913 88.8416 12.5913C87.2003 12.5913 85.8901 13.3254 85.1486 14.3933V12.7247H81.4123V25.1386H85.1486V18.3978C85.1486 16.707 86.07 15.7726 87.5098 15.7726Z" fill="black"/>
<path fill-rule="evenodd" clip-rule="evenodd" d="M73.3999 25.4278C69.8148 25.4278 67.1224 22.9806 67.1224 18.9317C67.1224 14.8827 69.8796 12.4355 73.4647 12.4355C77.0497 12.4355 79.8069 14.8827 79.8069 18.9317C79.8069 22.9806 77.0065 25.4278 73.3999 25.4278ZM70.909 18.9317C70.909 21.0229 72.0681 22.024 73.3999 22.024C74.7317 22.024 75.9987 21.0229 75.9987 18.9317C75.9987 16.8405 74.7533 15.8393 73.4431 15.8393C72.1329 15.8393 70.909 16.8182 70.909 18.9317Z" fill="black"/>
<path d="M48.7363 12.7247H45V25.1386H48.7363V18.3978C48.7363 16.7737 49.6577 15.8838 51.0975 15.8838C52.5373 15.8838 53.4372 16.7737 53.4372 18.3978V25.1386H57.1518V18.3978C57.1518 16.7737 58.0517 15.8838 59.4915 15.8838C60.9313 15.8838 61.8312 16.7737 61.8312 18.3978V25.1386H65.5458V17.8861C65.5458 14.549 63.6021 12.5913 60.5857 12.5913C58.7932 12.5913 57.2814 13.5924 56.4751 14.905C55.6472 13.4144 54.1571 12.5913 52.2997 12.5913C50.7232 12.5913 49.4562 13.2809 48.7363 14.3043V12.7247Z" fill="black"/>
<path d="M32.6237 0.675781H4.90166C2.7053 0.675781 0.924805 2.45628 0.924805 4.65263V32.3747C0.924805 34.5711 2.7053 36.3516 4.90166 36.3516H32.6237C34.8201 36.3516 36.6006 34.5711 36.6006 32.3747V4.65263C36.6006 2.45628 34.8201 0.675781 32.6237 0.675781Z" fill="#00D2D2"/>
<path fill-rule="evenodd" clip-rule="evenodd" d="M18.8355 25.2849C18.2824 24.876 17.7774 24.3972 17.3335 23.8572C16.2798 22.5739 15.6348 21.0129 15.4665 19.3753C15.4599 19.3207 15.5036 19.2726 15.5605 19.2726H23.8443C24.2619 19.2726 24.6008 18.9337 24.6008 18.5161C24.6008 14.6639 21.7695 11.4479 20.7288 10.6477C20.6698 10.6018 20.6851 10.5078 20.7573 10.4859C21.6143 10.2235 22.5303 10.0989 23.4814 10.1361C27.749 10.3001 31.2165 13.7959 31.3476 18.0657C31.4919 22.7094 27.7687 26.5201 23.1578 26.5201C21.5728 26.5201 20.0905 26.0697 18.8377 25.2892L18.8355 25.2849Z" fill="white"/>
<path fill-rule="evenodd" clip-rule="evenodd" d="M6.18569 18.1598C6.36496 13.8112 9.90893 10.2716 14.2574 10.1011C15.9037 10.0355 17.4451 10.4422 18.7656 11.1964C18.7787 11.2052 18.794 11.2139 18.8093 11.2227C20.0992 11.9682 21.177 13.046 21.9204 14.3556C22.5019 15.3766 22.8561 16.5026 22.9742 17.6547C22.9807 17.7094 22.9348 17.7575 22.8802 17.7575H14.5963C14.1831 17.7575 13.8399 18.0876 13.8399 18.5008C13.8399 22.8187 17.0187 25.8292 17.5478 26.2556C17.6046 26.3015 17.5915 26.3889 17.5238 26.4152C16.6121 26.7519 15.6282 26.9377 14.5985 26.9377C9.83022 26.9377 5.98674 22.974 6.1835 18.1619L6.18569 18.1598Z" fill="white"/>
</svg>
