<svg width="49" height="49" viewBox="0 0 49 49" fill="none" xmlns="http://www.w3.org/2000/svg">
<g id="CRM">
<path id="Vector" d="M43.5478 0.433105H6.24909C3.29401 0.433105 0.898438 2.82868 0.898438 5.78376V43.0825C0.898438 46.0375 3.29401 48.4331 6.24909 48.4331H43.5478C46.5029 48.4331 48.8984 46.0375 48.8984 43.0825V5.78376C48.8984 2.82868 46.5029 0.433105 43.5478 0.433105Z" fill="#00D2D2"/>
<g id="Vector_2">
<path fill-rule="evenodd" clip-rule="evenodd" d="M24.9972 33.5434C24.253 32.9934 23.5735 32.3492 22.9764 31.6226C21.5586 29.8959 20.6908 27.7957 20.4643 25.5925C20.4555 25.5189 20.5143 25.4542 20.5908 25.4542H31.7363C32.2981 25.4542 32.7541 24.9983 32.7541 24.4365C32.7541 19.2535 28.9448 14.9265 27.5446 13.8499C27.4652 13.7881 27.4858 13.6616 27.5829 13.6322C28.7359 13.2792 29.9684 13.1115 31.248 13.1615C36.9899 13.3822 41.6552 18.0857 41.8317 23.8305C42.0258 30.0783 37.0164 35.2054 30.8127 35.2054C28.6801 35.2054 26.6857 34.5995 25.0002 33.5493L24.9972 33.5434Z" fill="white"/>
<path fill-rule="evenodd" clip-rule="evenodd" d="M7.97752 23.957C8.21872 18.1063 12.987 13.3439 18.8377 13.1145C21.0526 13.0262 23.1264 13.5734 24.9031 14.5882C24.9208 14.5999 24.9414 14.6117 24.962 14.6235C26.6975 15.6265 28.1476 17.0767 29.1478 18.8387C29.9302 20.2124 30.4067 21.7273 30.5656 23.2775C30.5744 23.351 30.5126 23.4157 30.4391 23.4157H19.2936C18.7377 23.4157 18.2758 23.8599 18.2758 24.4159C18.2758 30.2254 22.5528 34.2759 23.2647 34.8495C23.3412 34.9113 23.3235 35.0289 23.2323 35.0642C22.0057 35.5172 20.682 35.7673 19.2966 35.7673C12.8811 35.7673 7.70984 30.4342 7.97457 23.9599L7.97752 23.957Z" fill="white"/>
</g>
</g>
</svg>
