<svg width="49" height="49" viewBox="0 0 49 49" fill="none" xmlns="http://www.w3.org/2000/svg">
<rect x="0.5" y="0.5" width="48" height="48" rx="7.5" fill="white" stroke="#C4C4C4"/>
<g clip-path="url(#paint0_angular_1036_980_clip_path)" data-figma-skip-parse="true"><g transform="matrix(0.00538878 0.00100126 -0.00173879 0.00551695 24.8925 23.2992)"><foreignObject x="-3223.19" y="-3223.19" width="6446.37" height="6446.37"><div xmlns="http://www.w3.org/1999/xhtml" style="background:conic-gradient(from 90deg,rgba(250, 210, 57, 1) 0deg,rgba(255, 214, 51, 1) 4.65807deg,rgba(148, 80, 253, 1) 86.0171deg,rgba(72, 0, 255, 1) 116.533deg,rgba(3, 250, 250, 1) 142.413deg,rgba(97, 97, 255, 1) 215.412deg,rgba(250, 210, 57, 1) 360deg);height:100%;width:100%;opacity:1"></div></foreignObject></g></g><path d="M22.1639 38.1098C22.967 38.5805 23.8848 38.7421 24.7567 38.5482C25.6286 38.3544 26.3995 37.8237 26.9318 37.0576C27.4642 36.2915 27.7028 35.3639 27.7166 34.4456C27.7166 34.1456 27.7166 33.8456 27.7166 33.5503C27.7074 32.8626 27.6844 32.1796 27.6385 31.5058C27.354 28.8522 26.1425 26.2356 24.2519 24.2742C22.3704 22.299 19.8373 20.9653 17.2079 20.5453C16.3452 20.4392 15.4733 20.3561 14.5968 20.3053C14.3031 20.2869 14.0048 20.273 13.7065 20.2592C12.7887 20.2223 11.8526 20.4207 11.0679 20.9284C10.2832 21.4314 9.71872 22.1929 9.49386 23.0651C9.26901 23.9373 9.39291 24.8788 9.83345 25.7048C11.3616 28.9815 16.1524 27.7077 18.1165 30.1906C20.0806 32.6734 19.6217 36.8269 22.1685 38.1191L22.1639 38.1098Z" data-figma-gradient-fill="{&#34;type&#34;:&#34;GRADIENT_ANGULAR&#34;,&#34;stops&#34;:[{&#34;color&#34;:{&#34;r&#34;:1.0,&#34;g&#34;:0.83921569585800171,&#34;b&#34;:0.20000000298023224,&#34;a&#34;:1.0},&#34;position&#34;:0.012939095497131348},{&#34;color&#34;:{&#34;r&#34;:0.58039218187332153,&#34;g&#34;:0.31372550129890442,&#34;b&#34;:0.99215686321258545,&#34;a&#34;:1.0},&#34;position&#34;:0.23893648386001587},{&#34;color&#34;:{&#34;r&#34;:0.28333333134651184,&#34;g&#34;:0.0,&#34;b&#34;:1.0,&#34;a&#34;:1.0},&#34;position&#34;:0.32370311021804810},{&#34;color&#34;:{&#34;r&#34;:0.011764706112444401,&#34;g&#34;:0.98039215803146362,&#34;b&#34;:0.98039215803146362,&#34;a&#34;:1.0},&#34;position&#34;:0.39559286832809448},{&#34;color&#34;:{&#34;r&#34;:0.38039216399192810,&#34;g&#34;:0.38039216399192810,&#34;b&#34;:1.0,&#34;a&#34;:1.0},&#34;position&#34;:0.59836751222610474}],&#34;stopsVar&#34;:[{&#34;color&#34;:{&#34;r&#34;:1.0,&#34;g&#34;:0.83921569585800171,&#34;b&#34;:0.20000000298023224,&#34;a&#34;:1.0},&#34;position&#34;:0.012939095497131348},{&#34;color&#34;:{&#34;r&#34;:0.58039218187332153,&#34;g&#34;:0.31372550129890442,&#34;b&#34;:0.99215686321258545,&#34;a&#34;:1.0},&#34;position&#34;:0.23893648386001587},{&#34;color&#34;:{&#34;r&#34;:0.28333333134651184,&#34;g&#34;:0.0,&#34;b&#34;:1.0,&#34;a&#34;:1.0},&#34;position&#34;:0.32370311021804810},{&#34;color&#34;:{&#34;r&#34;:0.011764706112444401,&#34;g&#34;:0.98039215803146362,&#34;b&#34;:0.98039215803146362,&#34;a&#34;:1.0},&#34;position&#34;:0.39559286832809448},{&#34;color&#34;:{&#34;r&#34;:0.38039216399192810,&#34;g&#34;:0.38039216399192810,&#34;b&#34;:1.0,&#34;a&#34;:1.0},&#34;position&#34;:0.59836751222610474}],&#34;transform&#34;:{&#34;m00&#34;:10.777560234069824,&#34;m01&#34;:-3.4775733947753906,&#34;m02&#34;:21.242477416992188,&#34;m10&#34;:2.0025129318237305,&#34;m11&#34;:11.033898353576660,&#34;m12&#34;:16.780982971191406},&#34;opacity&#34;:1.0,&#34;blendMode&#34;:&#34;NORMAL&#34;,&#34;visible&#34;:true}"/>
<g clip-path="url(#paint1_angular_1036_980_clip_path)" data-figma-skip-parse="true"><g transform="matrix(0.00795088 0.00877987 -0.00777154 0.00711777 23.7834 23.8177)"><foreignObject x="-2023.94" y="-2023.94" width="4047.89" height="4047.89"><div xmlns="http://www.w3.org/1999/xhtml" style="background:conic-gradient(from 90deg,rgba(115, 196, 240, 1) 0deg,rgba(3, 250, 250, 1) 13.7418deg,rgba(97, 97, 255, 1) 178.791deg,rgba(255, 214, 51, 1) 252.021deg,rgba(255, 107, 16, 1) 274.968deg,rgba(255, 129, 227, 1) 297.134deg,rgba(255, 129, 227, 1) 342.947deg,rgba(115, 196, 240, 1) 360deg);height:100%;width:100%;opacity:1"></div></foreignObject></g></g><path d="M25.7213 9.90076C24.9183 9.43003 24.0005 9.26851 23.1286 9.46234C22.2567 9.65616 21.4857 10.1869 20.9534 10.953C20.4211 11.719 20.1825 12.6467 20.1687 13.565C20.1687 13.865 20.1687 14.165 20.1687 14.4603C20.1779 15.148 20.2008 15.831 20.2467 16.5048C20.5312 19.1583 21.7427 21.775 23.6334 23.7364C25.5148 25.7116 28.0479 27.0453 30.6774 27.4653C31.5401 27.5714 32.412 27.6545 33.2885 27.7052C33.5822 27.7237 33.8805 27.7375 34.1787 27.7514C35.0965 27.7883 36.0327 27.5899 36.8174 27.0822C37.6021 26.5792 38.1665 25.8177 38.3914 24.9455C38.6162 24.0733 38.4923 23.1318 38.0518 22.3057C36.5237 19.0291 31.7328 20.3029 29.7688 17.82C27.8047 15.3372 28.2636 11.1837 25.7167 9.89153L25.7213 9.90076Z" data-figma-gradient-fill="{&#34;type&#34;:&#34;GRADIENT_ANGULAR&#34;,&#34;stops&#34;:[{&#34;color&#34;:{&#34;r&#34;:0.011764706112444401,&#34;g&#34;:0.98039215803146362,&#34;b&#34;:0.98039215803146362,&#34;a&#34;:1.0},&#34;position&#34;:0.038171753287315369},{&#34;color&#34;:{&#34;r&#34;:0.38039216399192810,&#34;g&#34;:0.38039216399192810,&#34;b&#34;:1.0,&#34;a&#34;:1.0},&#34;position&#34;:0.49664038419723511},{&#34;color&#34;:{&#34;r&#34;:1.0,&#34;g&#34;:0.83921569585800171,&#34;b&#34;:0.20000000298023224,&#34;a&#34;:1.0},&#34;position&#34;:0.70005834102630615},{&#34;color&#34;:{&#34;r&#34;:1.0,&#34;g&#34;:0.41960784792900085,&#34;b&#34;:0.062745101749897003,&#34;a&#34;:1.0},&#34;position&#34;:0.76379954814910889},{&#34;color&#34;:{&#34;r&#34;:1.0,&#34;g&#34;:0.50588238239288330,&#34;b&#34;:0.89294117689132690,&#34;a&#34;:1.0},&#34;position&#34;:0.82537221908569336},{&#34;color&#34;:{&#34;r&#34;:1.0,&#34;g&#34;:0.50588238239288330,&#34;b&#34;:0.89294117689132690,&#34;a&#34;:1.0},&#34;position&#34;:0.95263051986694336}],&#34;stopsVar&#34;:[{&#34;color&#34;:{&#34;r&#34;:0.011764706112444401,&#34;g&#34;:0.98039215803146362,&#34;b&#34;:0.98039215803146362,&#34;a&#34;:1.0},&#34;position&#34;:0.038171753287315369},{&#34;color&#34;:{&#34;r&#34;:0.38039216399192810,&#34;g&#34;:0.38039216399192810,&#34;b&#34;:1.0,&#34;a&#34;:1.0},&#34;position&#34;:0.49664038419723511},{&#34;color&#34;:{&#34;r&#34;:1.0,&#34;g&#34;:0.83921569585800171,&#34;b&#34;:0.20000000298023224,&#34;a&#34;:1.0},&#34;position&#34;:0.70005834102630615},{&#34;color&#34;:{&#34;r&#34;:1.0,&#34;g&#34;:0.41960784792900085,&#34;b&#34;:0.062745101749897003,&#34;a&#34;:1.0},&#34;position&#34;:0.76379954814910889},{&#34;color&#34;:{&#34;r&#34;:1.0,&#34;g&#34;:0.50588238239288330,&#34;b&#34;:0.89294117689132690,&#34;a&#34;:1.0},&#34;position&#34;:0.82537221908569336},{&#34;color&#34;:{&#34;r&#34;:1.0,&#34;g&#34;:0.50588238239288330,&#34;b&#34;:0.89294117689132690,&#34;a&#34;:1.0},&#34;position&#34;:0.95263051986694336}],&#34;transform&#34;:{&#34;m00&#34;:15.901768684387207,&#34;m01&#34;:-15.543084144592285,&#34;m02&#34;:23.604019165039062,&#34;m10&#34;:17.559734344482422,&#34;m11&#34;:14.235543251037598,&#34;m12&#34;:7.9200129508972168},&#34;opacity&#34;:1.0,&#34;blendMode&#34;:&#34;NORMAL&#34;,&#34;visible&#34;:true}"/>
<g clip-path="url(#paint2_angular_1036_980_clip_path)" data-figma-skip-parse="true"><g transform="matrix(-0.00233849 -0.00533063 0.00493638 -0.00219016 23.7839 23.9747)"><foreignObject x="-3451.46" y="-3451.46" width="6902.92" height="6902.92"><div xmlns="http://www.w3.org/1999/xhtml" style="background:conic-gradient(from 90deg,rgba(255, 197, 45, 1) 0deg,rgba(255, 107, 16, 1) 68.4941deg,rgba(255, 130, 227, 1) 87.2686deg,rgba(148, 80, 253, 1) 158.253deg,rgba(0, 116, 253, 1) 203.18deg,rgba(148, 80, 253, 1) 251.211deg,rgba(255, 214, 51, 1) 347.36deg,rgba(255, 197, 45, 1) 360deg);height:100%;width:100%;opacity:1"></div></foreignObject></g></g><path d="M38.1129 25.7696C38.581 24.962 38.7416 24.039 38.5489 23.1622C38.3562 22.2854 37.8284 21.51 37.0667 20.9747C36.3049 20.4394 35.3825 20.1994 34.4693 20.1855C34.1711 20.1855 33.8728 20.1855 33.5791 20.1855C32.8953 20.1948 32.2162 20.2179 31.5462 20.264C28.9075 20.5501 26.3056 21.7685 24.3553 23.6698C22.3912 25.562 21.065 28.1094 20.6474 30.7538C20.5419 31.6214 20.4593 32.4982 20.4088 33.3797C20.3905 33.675 20.3767 33.975 20.3629 34.275C20.3262 35.198 20.5235 36.1394 21.0283 36.9286C21.5285 37.7177 22.2857 38.2854 23.153 38.5115C24.0203 38.7377 24.9565 38.613 25.7779 38.17C29.036 36.6332 27.7695 31.8152 30.2383 29.84C32.7072 27.8648 36.828 28.3309 38.1129 25.7696Z" data-figma-gradient-fill="{&#34;type&#34;:&#34;GRADIENT_ANGULAR&#34;,&#34;stops&#34;:[{&#34;color&#34;:{&#34;r&#34;:1.0,&#34;g&#34;:0.41960784792900085,&#34;b&#34;:0.062745101749897003,&#34;a&#34;:1.0},&#34;position&#34;:0.19026148319244385},{&#34;color&#34;:{&#34;r&#34;:1.0,&#34;g&#34;:0.51010364294052124,&#34;b&#34;:0.89385569095611572,&#34;a&#34;:1.0},&#34;position&#34;:0.24241268634796143},{&#34;color&#34;:{&#34;r&#34;:0.58039218187332153,&#34;g&#34;:0.31372550129890442,&#34;b&#34;:0.99215686321258545,&#34;a&#34;:1.0},&#34;position&#34;:0.43959093093872070},{&#34;color&#34;:{&#34;r&#34;:0.0,&#34;g&#34;:0.45490196347236633,&#34;b&#34;:0.99215686321258545,&#34;a&#34;:1.0},&#34;position&#34;:0.56439012289047241},{&#34;color&#34;:{&#34;r&#34;:0.58039218187332153,&#34;g&#34;:0.31372550129890442,&#34;b&#34;:0.99215686321258545,&#34;a&#34;:1.0},&#34;position&#34;:0.69780862331390381},{&#34;color&#34;:{&#34;r&#34;:1.0,&#34;g&#34;:0.83921569585800171,&#34;b&#34;:0.20000000298023224,&#34;a&#34;:1.0},&#34;position&#34;:0.96488827466964722}],&#34;stopsVar&#34;:[{&#34;color&#34;:{&#34;r&#34;:1.0,&#34;g&#34;:0.41960784792900085,&#34;b&#34;:0.062745101749897003,&#34;a&#34;:1.0},&#34;position&#34;:0.19026148319244385},{&#34;color&#34;:{&#34;r&#34;:1.0,&#34;g&#34;:0.51010364294052124,&#34;b&#34;:0.89385569095611572,&#34;a&#34;:1.0},&#34;position&#34;:0.24241268634796143},{&#34;color&#34;:{&#34;r&#34;:0.58039218187332153,&#34;g&#34;:0.31372550129890442,&#34;b&#34;:0.99215686321258545,&#34;a&#34;:1.0},&#34;position&#34;:0.43959093093872070},{&#34;color&#34;:{&#34;r&#34;:0.0,&#34;g&#34;:0.45490196347236633,&#34;b&#34;:0.99215686321258545,&#34;a&#34;:1.0},&#34;position&#34;:0.56439012289047241},{&#34;color&#34;:{&#34;r&#34;:0.58039218187332153,&#34;g&#34;:0.31372550129890442,&#34;b&#34;:0.99215686321258545,&#34;a&#34;:1.0},&#34;position&#34;:0.69780862331390381},{&#34;color&#34;:{&#34;r&#34;:1.0,&#34;g&#34;:0.83921569585800171,&#34;b&#34;:0.20000000298023224,&#34;a&#34;:1.0},&#34;position&#34;:0.96488827466964722}],&#34;transform&#34;:{&#34;m00&#34;:-4.6769895553588867,&#34;m01&#34;:9.8727693557739258,&#34;m02&#34;:21.185962677001953,&#34;m10&#34;:-10.661265373229980,&#34;m11&#34;:-4.3803210258483887,&#34;m12&#34;:31.495470046997070},&#34;opacity&#34;:1.0,&#34;blendMode&#34;:&#34;NORMAL&#34;,&#34;visible&#34;:true}"/>
<g clip-path="url(#paint3_angular_1036_980_clip_path)" data-figma-skip-parse="true"><g transform="matrix(-0.00603402 -0.00660214 0.00767702 -0.00543357 23.9623 24.3261)"><foreignObject x="-3655.86" y="-3655.86" width="7311.73" height="7311.73"><div xmlns="http://www.w3.org/1999/xhtml" style="background:conic-gradient(from 90deg,rgba(20, 203, 138, 1) 0deg,rgba(4, 204, 88, 1) 22.5512deg,rgba(255, 214, 51, 1) 58.2341deg,rgba(255, 214, 51, 1) 78.0887deg,rgba(160, 144, 172, 1) 142.439deg,rgba(97, 97, 255, 1) 180.672deg,rgba(255, 129, 227, 1) 246.749deg,rgba(3, 250, 250, 1) 267.686deg,rgba(57, 201, 255, 1) 306.698deg,rgba(20, 203, 138, 1) 360deg);height:100%;width:100%;opacity:1"></div></foreignObject></g></g><path d="M9.84074 22.2573C9.37267 23.0649 9.2708 23.9652 9.46354 24.842C9.65627 25.7189 10.184 26.4942 10.9458 27.0295C11.7075 27.5649 12.6299 27.8048 13.5431 27.8187C13.8414 27.8187 14.1397 27.8187 14.4334 27.8187C15.1171 27.8094 15.7963 27.7864 16.4663 27.7402C19.1049 27.4541 21.7068 26.2357 23.6571 24.3344C25.6212 22.4423 26.9474 19.8948 27.365 17.2504C27.4705 16.3828 27.5531 15.506 27.6036 14.6245C27.622 14.3292 27.6357 14.0292 27.6495 13.7292C27.6862 12.8062 27.4889 11.8648 26.9841 11.0756C26.4839 10.2865 25.7267 9.71883 24.8594 9.4927C23.9921 9.26657 23.0685 9.35058 22.2471 9.79361C18.9889 11.3304 20.243 16.189 17.7741 18.1642C15.3053 20.1394 11.1256 19.696 9.84074 22.2573Z" data-figma-gradient-fill="{&#34;type&#34;:&#34;GRADIENT_ANGULAR&#34;,&#34;stops&#34;:[{&#34;color&#34;:{&#34;r&#34;:0.019287083297967911,&#34;g&#34;:0.80359828472137451,&#34;b&#34;:0.34845396876335144,&#34;a&#34;:1.0},&#34;position&#34;:0.062642157077789307},{&#34;color&#34;:{&#34;r&#34;:1.0,&#34;g&#34;:0.83921569585800171,&#34;b&#34;:0.20000000298023224,&#34;a&#34;:1.0},&#34;position&#34;:0.16176138818264008},{&#34;color&#34;:{&#34;r&#34;:1.0,&#34;g&#34;:0.83921569585800171,&#34;b&#34;:0.20000000298023224,&#34;a&#34;:1.0},&#34;position&#34;:0.21691308915615082},{&#34;color&#34;:{&#34;r&#34;:0.63010036945343018,&#34;g&#34;:0.56530267000198364,&#34;b&#34;:0.67759191989898682,&#34;a&#34;:1.0},&#34;position&#34;:0.39566385746002197},{&#34;color&#34;:{&#34;r&#34;:0.38039216399192810,&#34;g&#34;:0.38039216399192810,&#34;b&#34;:1.0,&#34;a&#34;:1.0},&#34;position&#34;:0.50186586380004883},{&#34;color&#34;:{&#34;r&#34;:1.0,&#34;g&#34;:0.50588238239288330,&#34;b&#34;:0.89294117689132690,&#34;a&#34;:1.0},&#34;position&#34;:0.68541431427001953},{&#34;color&#34;:{&#34;r&#34;:0.011764706112444401,&#34;g&#34;:0.98039215803146362,&#34;b&#34;:0.98039215803146362,&#34;a&#34;:1.0},&#34;position&#34;:0.74357092380523682},{&#34;color&#34;:{&#34;r&#34;:0.22616812586784363,&#34;g&#34;:0.79014730453491211,&#34;b&#34;:1.0,&#34;a&#34;:1.0},&#34;position&#34;:0.85193920135498047}],&#34;stopsVar&#34;:[{&#34;color&#34;:{&#34;r&#34;:0.019287083297967911,&#34;g&#34;:0.80359828472137451,&#34;b&#34;:0.34845396876335144,&#34;a&#34;:1.0},&#34;position&#34;:0.062642157077789307},{&#34;color&#34;:{&#34;r&#34;:1.0,&#34;g&#34;:0.83921569585800171,&#34;b&#34;:0.20000000298023224,&#34;a&#34;:1.0},&#34;position&#34;:0.16176138818264008},{&#34;color&#34;:{&#34;r&#34;:1.0,&#34;g&#34;:0.83921569585800171,&#34;b&#34;:0.20000000298023224,&#34;a&#34;:1.0},&#34;position&#34;:0.21691308915615082},{&#34;color&#34;:{&#34;r&#34;:0.63010036945343018,&#34;g&#34;:0.56530267000198364,&#34;b&#34;:0.67759191989898682,&#34;a&#34;:1.0},&#34;position&#34;:0.39566385746002197},{&#34;color&#34;:{&#34;r&#34;:0.38039216399192810,&#34;g&#34;:0.38039216399192810,&#34;b&#34;:1.0,&#34;a&#34;:1.0},&#34;position&#34;:0.50186586380004883},{&#34;color&#34;:{&#34;r&#34;:1.0,&#34;g&#34;:0.50588238239288330,&#34;b&#34;:0.89294117689132690,&#34;a&#34;:1.0},&#34;position&#34;:0.68541431427001953},{&#34;color&#34;:{&#34;r&#34;:0.011764706112444401,&#34;g&#34;:0.98039215803146362,&#34;b&#34;:0.98039215803146362,&#34;a&#34;:1.0},&#34;position&#34;:0.74357092380523682},{&#34;color&#34;:{&#34;r&#34;:0.22616812586784363,&#34;g&#34;:0.79014730453491211,&#34;b&#34;:1.0,&#34;a&#34;:1.0},&#34;position&#34;:0.85193920135498047}],&#34;transform&#34;:{&#34;m00&#34;:-12.068031311035156,&#34;m01&#34;:15.354039192199707,&#34;m02&#34;:22.319257736206055,&#34;m10&#34;:-13.204271316528320,&#34;m11&#34;:-10.867146492004395,&#34;m12&#34;:36.361827850341797},&#34;opacity&#34;:1.0,&#34;blendMode&#34;:&#34;NORMAL&#34;,&#34;visible&#34;:true}"/>
<g clip-path="url(#paint4_angular_1036_980_clip_path)" data-figma-skip-parse="true"><g transform="matrix(0.0053584 0.00100126 -0.00172899 0.00551695 24.8051 23.2992)"><foreignObject x="-3223.28" y="-3223.28" width="6446.56" height="6446.56"><div xmlns="http://www.w3.org/1999/xhtml" style="background:conic-gradient(from 90deg,rgba(250, 210, 57, 1) 0deg,rgba(255, 214, 51, 1) 4.65807deg,rgba(148, 80, 253, 1) 86.0171deg,rgba(72, 0, 255, 1) 116.533deg,rgba(3, 250, 250, 1) 142.413deg,rgba(97, 97, 255, 1) 215.412deg,rgba(250, 210, 57, 1) 360deg);height:100%;width:100%;opacity:1"></div></foreignObject></g></g><path d="M22.0919 38.1098C22.8904 38.5805 23.803 38.7421 24.67 38.5482C25.537 38.3544 26.3036 37.8237 26.8329 37.0576C27.3622 36.2915 27.5995 35.3639 27.6132 34.4456C27.6132 34.1456 27.6132 33.8456 27.6132 33.5503C27.6041 32.8626 27.5813 32.1796 27.5356 31.5058C27.2527 28.8522 26.0481 26.2356 24.1681 24.2742C22.2972 22.299 19.7784 20.9653 17.1638 20.5453C16.3059 20.4392 15.4389 20.3561 14.5674 20.3053C14.2753 20.2869 13.9787 20.273 13.6821 20.2592C12.7695 20.2223 11.8387 20.4207 11.0584 20.9284C10.2781 21.4314 9.71684 22.1929 9.49325 23.0651C9.26966 23.9373 9.39286 24.8788 9.83091 25.7048C11.3504 28.9815 16.1143 27.7077 18.0673 30.1906C20.0203 32.6734 19.564 36.8269 22.0965 38.1191L22.0919 38.1098Z" data-figma-gradient-fill="{&#34;type&#34;:&#34;GRADIENT_ANGULAR&#34;,&#34;stops&#34;:[{&#34;color&#34;:{&#34;r&#34;:1.0,&#34;g&#34;:0.83921569585800171,&#34;b&#34;:0.20000000298023224,&#34;a&#34;:1.0},&#34;position&#34;:0.012939095497131348},{&#34;color&#34;:{&#34;r&#34;:0.58039218187332153,&#34;g&#34;:0.31372550129890442,&#34;b&#34;:0.99215686321258545,&#34;a&#34;:1.0},&#34;position&#34;:0.23893648386001587},{&#34;color&#34;:{&#34;r&#34;:0.28333333134651184,&#34;g&#34;:0.0,&#34;b&#34;:1.0,&#34;a&#34;:1.0},&#34;position&#34;:0.32370311021804810},{&#34;color&#34;:{&#34;r&#34;:0.011764706112444401,&#34;g&#34;:0.98039215803146362,&#34;b&#34;:0.98039215803146362,&#34;a&#34;:1.0},&#34;position&#34;:0.39559286832809448},{&#34;color&#34;:{&#34;r&#34;:0.38039216399192810,&#34;g&#34;:0.38039216399192810,&#34;b&#34;:1.0,&#34;a&#34;:1.0},&#34;position&#34;:0.59836751222610474}],&#34;stopsVar&#34;:[{&#34;color&#34;:{&#34;r&#34;:1.0,&#34;g&#34;:0.83921569585800171,&#34;b&#34;:0.20000000298023224,&#34;a&#34;:1.0},&#34;position&#34;:0.012939095497131348},{&#34;color&#34;:{&#34;r&#34;:0.58039218187332153,&#34;g&#34;:0.31372550129890442,&#34;b&#34;:0.99215686321258545,&#34;a&#34;:1.0},&#34;position&#34;:0.23893648386001587},{&#34;color&#34;:{&#34;r&#34;:0.28333333134651184,&#34;g&#34;:0.0,&#34;b&#34;:1.0,&#34;a&#34;:1.0},&#34;position&#34;:0.32370311021804810},{&#34;color&#34;:{&#34;r&#34;:0.011764706112444401,&#34;g&#34;:0.98039215803146362,&#34;b&#34;:0.98039215803146362,&#34;a&#34;:1.0},&#34;position&#34;:0.39559286832809448},{&#34;color&#34;:{&#34;r&#34;:0.38039216399192810,&#34;g&#34;:0.38039216399192810,&#34;b&#34;:1.0,&#34;a&#34;:1.0},&#34;position&#34;:0.59836751222610474}],&#34;transform&#34;:{&#34;m00&#34;:10.716808319091797,&#34;m01&#34;:-3.4579706192016602,&#34;m02&#34;:21.175632476806641,&#34;m10&#34;:2.0025129318237305,&#34;m11&#34;:11.033898353576660,&#34;m12&#34;:16.780982971191406},&#34;opacity&#34;:1.0,&#34;blendMode&#34;:&#34;NORMAL&#34;,&#34;visible&#34;:true}"/>
<g clip-path="url(#paint5_angular_1036_980_clip_path)" data-figma-skip-parse="true"><g transform="matrix(0.00790607 0.00877987 -0.00772774 0.00711777 23.7022 23.8177)"><foreignObject x="-2024.15" y="-2024.15" width="4048.3" height="4048.3"><div xmlns="http://www.w3.org/1999/xhtml" style="background:conic-gradient(from 90deg,rgba(115, 196, 240, 1) 0deg,rgba(3, 250, 250, 1) 13.7418deg,rgba(97, 97, 255, 1) 178.791deg,rgba(255, 214, 51, 1) 252.021deg,rgba(255, 107, 16, 1) 274.968deg,rgba(255, 129, 227, 1) 297.134deg,rgba(255, 129, 227, 1) 342.947deg,rgba(115, 196, 240, 1) 360deg);height:100%;width:100%;opacity:1"></div></foreignObject></g></g><path d="M25.6292 9.90076C24.8307 9.43003 23.9181 9.26851 23.0511 9.46234C22.1841 9.65616 21.4175 10.1869 20.8882 10.953C20.3589 11.719 20.1216 12.6467 20.1079 13.565C20.1079 13.865 20.1079 14.165 20.1079 14.4603C20.117 15.148 20.1399 15.831 20.1855 16.5048C20.4684 19.1583 21.673 21.775 23.553 23.7364C25.4239 25.7116 27.9427 27.0453 30.5574 27.4653C31.4152 27.5714 32.2822 27.6545 33.1537 27.7052C33.4458 27.7237 33.7424 27.7375 34.039 27.7514C34.9516 27.7883 35.8825 27.5899 36.6627 27.0822C37.443 26.5792 38.0043 25.8177 38.2279 24.9455C38.4515 24.0733 38.3283 23.1318 37.8902 22.3057C36.3707 19.0291 31.6069 20.3029 29.6539 17.82C27.7009 15.3372 28.1572 11.1837 25.6247 9.89153L25.6292 9.90076Z" data-figma-gradient-fill="{&#34;type&#34;:&#34;GRADIENT_ANGULAR&#34;,&#34;stops&#34;:[{&#34;color&#34;:{&#34;r&#34;:0.011764706112444401,&#34;g&#34;:0.98039215803146362,&#34;b&#34;:0.98039215803146362,&#34;a&#34;:1.0},&#34;position&#34;:0.038171753287315369},{&#34;color&#34;:{&#34;r&#34;:0.38039216399192810,&#34;g&#34;:0.38039216399192810,&#34;b&#34;:1.0,&#34;a&#34;:1.0},&#34;position&#34;:0.49664038419723511},{&#34;color&#34;:{&#34;r&#34;:1.0,&#34;g&#34;:0.83921569585800171,&#34;b&#34;:0.20000000298023224,&#34;a&#34;:1.0},&#34;position&#34;:0.70005834102630615},{&#34;color&#34;:{&#34;r&#34;:1.0,&#34;g&#34;:0.41960784792900085,&#34;b&#34;:0.062745101749897003,&#34;a&#34;:1.0},&#34;position&#34;:0.76379954814910889},{&#34;color&#34;:{&#34;r&#34;:1.0,&#34;g&#34;:0.50588238239288330,&#34;b&#34;:0.89294117689132690,&#34;a&#34;:1.0},&#34;position&#34;:0.82537221908569336},{&#34;color&#34;:{&#34;r&#34;:1.0,&#34;g&#34;:0.50588238239288330,&#34;b&#34;:0.89294117689132690,&#34;a&#34;:1.0},&#34;position&#34;:0.95263051986694336}],&#34;stopsVar&#34;:[{&#34;color&#34;:{&#34;r&#34;:0.011764706112444401,&#34;g&#34;:0.98039215803146362,&#34;b&#34;:0.98039215803146362,&#34;a&#34;:1.0},&#34;position&#34;:0.038171753287315369},{&#34;color&#34;:{&#34;r&#34;:0.38039216399192810,&#34;g&#34;:0.38039216399192810,&#34;b&#34;:1.0,&#34;a&#34;:1.0},&#34;position&#34;:0.49664038419723511},{&#34;color&#34;:{&#34;r&#34;:1.0,&#34;g&#34;:0.83921569585800171,&#34;b&#34;:0.20000000298023224,&#34;a&#34;:1.0},&#34;position&#34;:0.70005834102630615},{&#34;color&#34;:{&#34;r&#34;:1.0,&#34;g&#34;:0.41960784792900085,&#34;b&#34;:0.062745101749897003,&#34;a&#34;:1.0},&#34;position&#34;:0.76379954814910889},{&#34;color&#34;:{&#34;r&#34;:1.0,&#34;g&#34;:0.50588238239288330,&#34;b&#34;:0.89294117689132690,&#34;a&#34;:1.0},&#34;position&#34;:0.82537221908569336},{&#34;color&#34;:{&#34;r&#34;:1.0,&#34;g&#34;:0.50588238239288330,&#34;b&#34;:0.89294117689132690,&#34;a&#34;:1.0},&#34;position&#34;:0.95263051986694336}],&#34;transform&#34;:{&#34;m00&#34;:15.812134742736816,&#34;m01&#34;:-15.455471038818359,&#34;m02&#34;:23.523862838745117,&#34;m10&#34;:17.559734344482422,&#34;m11&#34;:14.235543251037598,&#34;m12&#34;:7.9200129508972168},&#34;opacity&#34;:1.0,&#34;blendMode&#34;:&#34;NORMAL&#34;,&#34;visible&#34;:true}"/>
<g clip-path="url(#paint6_angular_1036_980_clip_path)" data-figma-skip-parse="true"><g transform="matrix(-0.00232531 -0.00533063 0.00490856 -0.00219016 23.7023 23.9747)"><foreignObject x="-3451.66" y="-3451.66" width="6903.33" height="6903.33"><div xmlns="http://www.w3.org/1999/xhtml" style="background:conic-gradient(from 90deg,rgba(255, 197, 45, 1) 0deg,rgba(255, 107, 16, 1) 68.4941deg,rgba(255, 130, 227, 1) 87.2686deg,rgba(148, 80, 253, 1) 158.253deg,rgba(0, 116, 253, 1) 203.18deg,rgba(148, 80, 253, 1) 251.211deg,rgba(255, 214, 51, 1) 347.36deg,rgba(255, 197, 45, 1) 360deg);height:100%;width:100%;opacity:1"></div></foreignObject></g></g><path d="M37.9506 25.7696C38.416 24.962 38.5758 24.039 38.3841 23.1622C38.1925 22.2854 37.6677 21.51 36.9102 20.9747C36.1528 20.4394 35.2356 20.1994 34.3275 20.1855C34.0309 20.1855 33.7343 20.1855 33.4423 20.1855C32.7624 20.1948 32.0871 20.2179 31.4209 20.264C28.7971 20.5501 26.2098 21.7685 24.2705 23.6698C22.3175 25.562 20.9988 28.1094 20.5836 30.7538C20.4786 31.6214 20.3965 32.4982 20.3463 33.3797C20.328 33.675 20.3143 33.975 20.3006 34.275C20.2641 35.198 20.4604 36.1394 20.9623 36.9286C21.4597 37.7177 22.2126 38.2854 23.075 38.5115C23.9374 38.7377 24.8683 38.613 25.6851 38.17C28.9249 36.6332 27.6654 31.8152 30.1204 29.84C32.5753 27.8648 36.673 28.3309 37.9506 25.7696Z" data-figma-gradient-fill="{&#34;type&#34;:&#34;GRADIENT_ANGULAR&#34;,&#34;stops&#34;:[{&#34;color&#34;:{&#34;r&#34;:1.0,&#34;g&#34;:0.41960784792900085,&#34;b&#34;:0.062745101749897003,&#34;a&#34;:1.0},&#34;position&#34;:0.19026148319244385},{&#34;color&#34;:{&#34;r&#34;:1.0,&#34;g&#34;:0.51010364294052124,&#34;b&#34;:0.89385569095611572,&#34;a&#34;:1.0},&#34;position&#34;:0.24241268634796143},{&#34;color&#34;:{&#34;r&#34;:0.58039218187332153,&#34;g&#34;:0.31372550129890442,&#34;b&#34;:0.99215686321258545,&#34;a&#34;:1.0},&#34;position&#34;:0.43959093093872070},{&#34;color&#34;:{&#34;r&#34;:0.0,&#34;g&#34;:0.45490196347236633,&#34;b&#34;:0.99215686321258545,&#34;a&#34;:1.0},&#34;position&#34;:0.56439012289047241},{&#34;color&#34;:{&#34;r&#34;:0.58039218187332153,&#34;g&#34;:0.31372550129890442,&#34;b&#34;:0.99215686321258545,&#34;a&#34;:1.0},&#34;position&#34;:0.69780862331390381},{&#34;color&#34;:{&#34;r&#34;:1.0,&#34;g&#34;:0.83921569585800171,&#34;b&#34;:0.20000000298023224,&#34;a&#34;:1.0},&#34;position&#34;:0.96488827466964722}],&#34;stopsVar&#34;:[{&#34;color&#34;:{&#34;r&#34;:1.0,&#34;g&#34;:0.41960784792900085,&#34;b&#34;:0.062745101749897003,&#34;a&#34;:1.0},&#34;position&#34;:0.19026148319244385},{&#34;color&#34;:{&#34;r&#34;:1.0,&#34;g&#34;:0.51010364294052124,&#34;b&#34;:0.89385569095611572,&#34;a&#34;:1.0},&#34;position&#34;:0.24241268634796143},{&#34;color&#34;:{&#34;r&#34;:0.58039218187332153,&#34;g&#34;:0.31372550129890442,&#34;b&#34;:0.99215686321258545,&#34;a&#34;:1.0},&#34;position&#34;:0.43959093093872070},{&#34;color&#34;:{&#34;r&#34;:0.0,&#34;g&#34;:0.45490196347236633,&#34;b&#34;:0.99215686321258545,&#34;a&#34;:1.0},&#34;position&#34;:0.56439012289047241},{&#34;color&#34;:{&#34;r&#34;:0.58039218187332153,&#34;g&#34;:0.31372550129890442,&#34;b&#34;:0.99215686321258545,&#34;a&#34;:1.0},&#34;position&#34;:0.69780862331390381},{&#34;color&#34;:{&#34;r&#34;:1.0,&#34;g&#34;:0.83921569585800171,&#34;b&#34;:0.20000000298023224,&#34;a&#34;:1.0},&#34;position&#34;:0.96488827466964722}],&#34;transform&#34;:{&#34;m00&#34;:-4.6506261825561523,&#34;m01&#34;:9.8171186447143555,&#34;m02&#34;:21.119043350219727,&#34;m10&#34;:-10.661265373229980,&#34;m11&#34;:-4.3803210258483887,&#34;m12&#34;:31.495470046997070},&#34;opacity&#34;:1.0,&#34;blendMode&#34;:&#34;NORMAL&#34;,&#34;visible&#34;:true}"/>
<g clip-path="url(#paint7_angular_1036_980_clip_path)" data-figma-skip-parse="true"><g transform="matrix(-0.006 -0.00660214 0.00763375 -0.00543357 23.88 24.3261)"><foreignObject x="-3658.99" y="-3658.99" width="7317.98" height="7317.98"><div xmlns="http://www.w3.org/1999/xhtml" style="background:conic-gradient(from 90deg,rgba(20, 203, 138, 1) 0deg,rgba(4, 204, 88, 1) 22.5512deg,rgba(255, 214, 51, 1) 58.2341deg,rgba(255, 214, 51, 1) 78.0887deg,rgba(160, 144, 172, 1) 142.439deg,rgba(97, 97, 255, 1) 180.672deg,rgba(255, 129, 227, 1) 246.749deg,rgba(3, 250, 250, 1) 267.686deg,rgba(57, 201, 255, 1) 306.698deg,rgba(20, 203, 138, 1) 360deg);height:100%;width:100%;opacity:1"></div></foreignObject></g></g><path d="M9.8381 22.2573C9.37266 23.0649 9.27137 23.9652 9.46302 24.842C9.65467 25.7189 10.1794 26.4942 10.9369 27.0295C11.6944 27.5649 12.6115 27.8048 13.5196 27.8187C13.8162 27.8187 14.1128 27.8187 14.4048 27.8187C15.0847 27.8094 15.7601 27.7864 16.4263 27.7402C19.05 27.4541 21.6373 26.2357 23.5766 24.3344C25.5296 22.4423 26.8483 19.8948 27.2636 17.2504C27.3685 16.3828 27.4507 15.506 27.5009 14.6245C27.5191 14.3292 27.5328 14.0292 27.5465 13.7292C27.583 12.8062 27.3868 11.8648 26.8848 11.0756C26.3875 10.2865 25.6346 9.71883 24.7721 9.4927C23.9097 9.26657 22.9913 9.35058 22.1745 9.79361C18.9347 11.3304 20.1817 16.189 17.7267 18.1642C15.2718 20.1394 11.1158 19.696 9.8381 22.2573Z" data-figma-gradient-fill="{&#34;type&#34;:&#34;GRADIENT_ANGULAR&#34;,&#34;stops&#34;:[{&#34;color&#34;:{&#34;r&#34;:0.019287083297967911,&#34;g&#34;:0.80359828472137451,&#34;b&#34;:0.34845396876335144,&#34;a&#34;:1.0},&#34;position&#34;:0.062642157077789307},{&#34;color&#34;:{&#34;r&#34;:1.0,&#34;g&#34;:0.83921569585800171,&#34;b&#34;:0.20000000298023224,&#34;a&#34;:1.0},&#34;position&#34;:0.16176138818264008},{&#34;color&#34;:{&#34;r&#34;:1.0,&#34;g&#34;:0.83921569585800171,&#34;b&#34;:0.20000000298023224,&#34;a&#34;:1.0},&#34;position&#34;:0.21691308915615082},{&#34;color&#34;:{&#34;r&#34;:0.63010036945343018,&#34;g&#34;:0.56530267000198364,&#34;b&#34;:0.67759191989898682,&#34;a&#34;:1.0},&#34;position&#34;:0.39566385746002197},{&#34;color&#34;:{&#34;r&#34;:0.38039216399192810,&#34;g&#34;:0.38039216399192810,&#34;b&#34;:1.0,&#34;a&#34;:1.0},&#34;position&#34;:0.50186586380004883},{&#34;color&#34;:{&#34;r&#34;:1.0,&#34;g&#34;:0.50588238239288330,&#34;b&#34;:0.89294117689132690,&#34;a&#34;:1.0},&#34;position&#34;:0.68541431427001953},{&#34;color&#34;:{&#34;r&#34;:0.011764706112444401,&#34;g&#34;:0.98039215803146362,&#34;b&#34;:0.98039215803146362,&#34;a&#34;:1.0},&#34;position&#34;:0.74357092380523682},{&#34;color&#34;:{&#34;r&#34;:0.22616812586784363,&#34;g&#34;:0.79014730453491211,&#34;b&#34;:1.0,&#34;a&#34;:1.0},&#34;position&#34;:0.85193920135498047}],&#34;stopsVar&#34;:[{&#34;color&#34;:{&#34;r&#34;:0.019287083297967911,&#34;g&#34;:0.80359828472137451,&#34;b&#34;:0.34845396876335144,&#34;a&#34;:1.0},&#34;position&#34;:0.062642157077789307},{&#34;color&#34;:{&#34;r&#34;:1.0,&#34;g&#34;:0.83921569585800171,&#34;b&#34;:0.20000000298023224,&#34;a&#34;:1.0},&#34;position&#34;:0.16176138818264008},{&#34;color&#34;:{&#34;r&#34;:1.0,&#34;g&#34;:0.83921569585800171,&#34;b&#34;:0.20000000298023224,&#34;a&#34;:1.0},&#34;position&#34;:0.21691308915615082},{&#34;color&#34;:{&#34;r&#34;:0.63010036945343018,&#34;g&#34;:0.56530267000198364,&#34;b&#34;:0.67759191989898682,&#34;a&#34;:1.0},&#34;position&#34;:0.39566385746002197},{&#34;color&#34;:{&#34;r&#34;:0.38039216399192810,&#34;g&#34;:0.38039216399192810,&#34;b&#34;:1.0,&#34;a&#34;:1.0},&#34;position&#34;:0.50186586380004883},{&#34;color&#34;:{&#34;r&#34;:1.0,&#34;g&#34;:0.50588238239288330,&#34;b&#34;:0.89294117689132690,&#34;a&#34;:1.0},&#34;position&#34;:0.68541431427001953},{&#34;color&#34;:{&#34;r&#34;:0.011764706112444401,&#34;g&#34;:0.98039215803146362,&#34;b&#34;:0.98039215803146362,&#34;a&#34;:1.0},&#34;position&#34;:0.74357092380523682},{&#34;color&#34;:{&#34;r&#34;:0.22616812586784363,&#34;g&#34;:0.79014730453491211,&#34;b&#34;:1.0,&#34;a&#34;:1.0},&#34;position&#34;:0.85193920135498047}],&#34;transform&#34;:{&#34;m00&#34;:-12.000004768371582,&#34;m01&#34;:15.267490386962891,&#34;m02&#34;:22.246271133422852,&#34;m10&#34;:-13.204271316528320,&#34;m11&#34;:-10.867146492004395,&#34;m12&#34;:36.361827850341797},&#34;opacity&#34;:1.0,&#34;blendMode&#34;:&#34;NORMAL&#34;,&#34;visible&#34;:true}"/>
<defs>
<clipPath id="paint0_angular_1036_980_clip_path"><path d="M22.1639 38.1098C22.967 38.5805 23.8848 38.7421 24.7567 38.5482C25.6286 38.3544 26.3995 37.8237 26.9318 37.0576C27.4642 36.2915 27.7028 35.3639 27.7166 34.4456C27.7166 34.1456 27.7166 33.8456 27.7166 33.5503C27.7074 32.8626 27.6844 32.1796 27.6385 31.5058C27.354 28.8522 26.1425 26.2356 24.2519 24.2742C22.3704 22.299 19.8373 20.9653 17.2079 20.5453C16.3452 20.4392 15.4733 20.3561 14.5968 20.3053C14.3031 20.2869 14.0048 20.273 13.7065 20.2592C12.7887 20.2223 11.8526 20.4207 11.0679 20.9284C10.2832 21.4314 9.71872 22.1929 9.49386 23.0651C9.26901 23.9373 9.39291 24.8788 9.83345 25.7048C11.3616 28.9815 16.1524 27.7077 18.1165 30.1906C20.0806 32.6734 19.6217 36.8269 22.1685 38.1191L22.1639 38.1098Z"/></clipPath><clipPath id="paint1_angular_1036_980_clip_path"><path d="M25.7213 9.90076C24.9183 9.43003 24.0005 9.26851 23.1286 9.46234C22.2567 9.65616 21.4857 10.1869 20.9534 10.953C20.4211 11.719 20.1825 12.6467 20.1687 13.565C20.1687 13.865 20.1687 14.165 20.1687 14.4603C20.1779 15.148 20.2008 15.831 20.2467 16.5048C20.5312 19.1583 21.7427 21.775 23.6334 23.7364C25.5148 25.7116 28.0479 27.0453 30.6774 27.4653C31.5401 27.5714 32.412 27.6545 33.2885 27.7052C33.5822 27.7237 33.8805 27.7375 34.1787 27.7514C35.0965 27.7883 36.0327 27.5899 36.8174 27.0822C37.6021 26.5792 38.1665 25.8177 38.3914 24.9455C38.6162 24.0733 38.4923 23.1318 38.0518 22.3057C36.5237 19.0291 31.7328 20.3029 29.7688 17.82C27.8047 15.3372 28.2636 11.1837 25.7167 9.89153L25.7213 9.90076Z"/></clipPath><clipPath id="paint2_angular_1036_980_clip_path"><path d="M38.1129 25.7696C38.581 24.962 38.7416 24.039 38.5489 23.1622C38.3562 22.2854 37.8284 21.51 37.0667 20.9747C36.3049 20.4394 35.3825 20.1994 34.4693 20.1855C34.1711 20.1855 33.8728 20.1855 33.5791 20.1855C32.8953 20.1948 32.2162 20.2179 31.5462 20.264C28.9075 20.5501 26.3056 21.7685 24.3553 23.6698C22.3912 25.562 21.065 28.1094 20.6474 30.7538C20.5419 31.6214 20.4593 32.4982 20.4088 33.3797C20.3905 33.675 20.3767 33.975 20.3629 34.275C20.3262 35.198 20.5235 36.1394 21.0283 36.9286C21.5285 37.7177 22.2857 38.2854 23.153 38.5115C24.0203 38.7377 24.9565 38.613 25.7779 38.17C29.036 36.6332 27.7695 31.8152 30.2383 29.84C32.7072 27.8648 36.828 28.3309 38.1129 25.7696Z"/></clipPath><clipPath id="paint3_angular_1036_980_clip_path"><path d="M9.84074 22.2573C9.37267 23.0649 9.2708 23.9652 9.46354 24.842C9.65627 25.7189 10.184 26.4942 10.9458 27.0295C11.7075 27.5649 12.6299 27.8048 13.5431 27.8187C13.8414 27.8187 14.1397 27.8187 14.4334 27.8187C15.1171 27.8094 15.7963 27.7864 16.4663 27.7402C19.1049 27.4541 21.7068 26.2357 23.6571 24.3344C25.6212 22.4423 26.9474 19.8948 27.365 17.2504C27.4705 16.3828 27.5531 15.506 27.6036 14.6245C27.622 14.3292 27.6357 14.0292 27.6495 13.7292C27.6862 12.8062 27.4889 11.8648 26.9841 11.0756C26.4839 10.2865 25.7267 9.71883 24.8594 9.4927C23.9921 9.26657 23.0685 9.35058 22.2471 9.79361C18.9889 11.3304 20.243 16.189 17.7741 18.1642C15.3053 20.1394 11.1256 19.696 9.84074 22.2573Z"/></clipPath><clipPath id="paint4_angular_1036_980_clip_path"><path d="M22.0919 38.1098C22.8904 38.5805 23.803 38.7421 24.67 38.5482C25.537 38.3544 26.3036 37.8237 26.8329 37.0576C27.3622 36.2915 27.5995 35.3639 27.6132 34.4456C27.6132 34.1456 27.6132 33.8456 27.6132 33.5503C27.6041 32.8626 27.5813 32.1796 27.5356 31.5058C27.2527 28.8522 26.0481 26.2356 24.1681 24.2742C22.2972 22.299 19.7784 20.9653 17.1638 20.5453C16.3059 20.4392 15.4389 20.3561 14.5674 20.3053C14.2753 20.2869 13.9787 20.273 13.6821 20.2592C12.7695 20.2223 11.8387 20.4207 11.0584 20.9284C10.2781 21.4314 9.71684 22.1929 9.49325 23.0651C9.26966 23.9373 9.39286 24.8788 9.83091 25.7048C11.3504 28.9815 16.1143 27.7077 18.0673 30.1906C20.0203 32.6734 19.564 36.8269 22.0965 38.1191L22.0919 38.1098Z"/></clipPath><clipPath id="paint5_angular_1036_980_clip_path"><path d="M25.6292 9.90076C24.8307 9.43003 23.9181 9.26851 23.0511 9.46234C22.1841 9.65616 21.4175 10.1869 20.8882 10.953C20.3589 11.719 20.1216 12.6467 20.1079 13.565C20.1079 13.865 20.1079 14.165 20.1079 14.4603C20.117 15.148 20.1399 15.831 20.1855 16.5048C20.4684 19.1583 21.673 21.775 23.553 23.7364C25.4239 25.7116 27.9427 27.0453 30.5574 27.4653C31.4152 27.5714 32.2822 27.6545 33.1537 27.7052C33.4458 27.7237 33.7424 27.7375 34.039 27.7514C34.9516 27.7883 35.8825 27.5899 36.6627 27.0822C37.443 26.5792 38.0043 25.8177 38.2279 24.9455C38.4515 24.0733 38.3283 23.1318 37.8902 22.3057C36.3707 19.0291 31.6069 20.3029 29.6539 17.82C27.7009 15.3372 28.1572 11.1837 25.6247 9.89153L25.6292 9.90076Z"/></clipPath><clipPath id="paint6_angular_1036_980_clip_path"><path d="M37.9506 25.7696C38.416 24.962 38.5758 24.039 38.3841 23.1622C38.1925 22.2854 37.6677 21.51 36.9102 20.9747C36.1528 20.4394 35.2356 20.1994 34.3275 20.1855C34.0309 20.1855 33.7343 20.1855 33.4423 20.1855C32.7624 20.1948 32.0871 20.2179 31.4209 20.264C28.7971 20.5501 26.2098 21.7685 24.2705 23.6698C22.3175 25.562 20.9988 28.1094 20.5836 30.7538C20.4786 31.6214 20.3965 32.4982 20.3463 33.3797C20.328 33.675 20.3143 33.975 20.3006 34.275C20.2641 35.198 20.4604 36.1394 20.9623 36.9286C21.4597 37.7177 22.2126 38.2854 23.075 38.5115C23.9374 38.7377 24.8683 38.613 25.6851 38.17C28.9249 36.6332 27.6654 31.8152 30.1204 29.84C32.5753 27.8648 36.673 28.3309 37.9506 25.7696Z"/></clipPath><clipPath id="paint7_angular_1036_980_clip_path"><path d="M9.8381 22.2573C9.37266 23.0649 9.27137 23.9652 9.46302 24.842C9.65467 25.7189 10.1794 26.4942 10.9369 27.0295C11.6944 27.5649 12.6115 27.8048 13.5196 27.8187C13.8162 27.8187 14.1128 27.8187 14.4048 27.8187C15.0847 27.8094 15.7601 27.7864 16.4263 27.7402C19.05 27.4541 21.6373 26.2357 23.5766 24.3344C25.5296 22.4423 26.8483 19.8948 27.2636 17.2504C27.3685 16.3828 27.4507 15.506 27.5009 14.6245C27.5191 14.3292 27.5328 14.0292 27.5465 13.7292C27.583 12.8062 27.3868 11.8648 26.8848 11.0756C26.3875 10.2865 25.6346 9.71883 24.7721 9.4927C23.9097 9.26657 22.9913 9.35058 22.1745 9.79361C18.9347 11.3304 20.1817 16.189 17.7267 18.1642C15.2718 20.1394 11.1158 19.696 9.8381 22.2573Z"/></clipPath></defs>
</svg>
