<svg width="80" height="80" viewBox="0 0 80 80" fill="none" xmlns="http://www.w3.org/2000/svg">
<path d="M71.0822 -0.000976562H8.91776C3.99262 -0.000976562 0 3.99164 0 8.91678V71.0813C0 76.0064 3.99262 79.999 8.91776 79.999H71.0822C76.0074 79.999 80 76.0064 80 71.0813V8.91678C80 3.99164 76.0074 -0.000976562 71.0822 -0.000976562Z" fill="#FB275D"/>
<path fill-rule="evenodd" clip-rule="evenodd" d="M25.594 24.1722C21.4367 25.9224 19.407 30.3102 21.2896 34.7863C23.7262 40.5713 34.4481 43.8609 34.953 43.9345C35.4041 44.0031 35.9335 43.7433 35.9335 43.2432C35.9335 42.7431 34.953 38.5858 34.953 38.2916C34.953 37.9975 35.1197 37.7327 35.4041 37.6151C35.6884 37.4974 48.1213 32.2271 52.2444 30.4916C56.3674 28.7561 58.3235 24.0889 56.5488 19.8776C54.7741 15.6663 50.0823 13.8278 45.9348 15.5731C41.7921 17.3184 29.7514 22.4269 25.594 24.1771V24.1722Z" fill="white"/>
<path fill-rule="evenodd" clip-rule="evenodd" d="M54.4015 55.8232C58.5638 54.073 60.5885 49.6852 58.706 45.2091C56.2694 39.4241 45.5475 36.159 45.0425 36.0855C44.5915 36.0168 44.062 36.2767 44.062 36.7767C44.062 37.2768 45.0425 41.4145 45.0425 41.7087C45.0425 42.0028 44.8758 42.2676 44.5915 42.3852C44.3071 42.5029 31.8742 47.7732 27.7512 49.5087C23.6281 51.2442 21.672 55.9114 23.4467 60.1227C25.2215 64.3389 29.9132 66.1725 34.0608 64.4272C38.2083 62.6819 50.2441 57.5734 54.4015 55.8232Z" fill="white"/>
</svg>
