<svg width="48" height="49" viewBox="0 0 48 49" fill="none" xmlns="http://www.w3.org/2000/svg">
<g id="WM">
<path id="Vector" d="M42.6493 0.433105H5.35066C2.39557 0.433105 0 2.82868 0 5.78376V43.0825C0 46.0375 2.39557 48.4331 5.35066 48.4331H42.6493C45.6044 48.4331 48 46.0375 48 43.0825V5.78376C48 2.82868 45.6044 0.433105 42.6493 0.433105Z" fill="#6161FF"/>
<g id="WM Symbol">
<path d="M24.0306 29.1201C25.9838 29.1201 27.5693 27.5346 27.5693 25.5814C27.5693 23.6282 25.9838 22.0428 24.0306 22.0428C22.0774 22.0428 20.492 23.6282 20.492 25.5814C20.492 27.5346 22.0774 29.1201 24.0306 29.1201Z" fill="white"/>
<path d="M24.0306 18.2952C25.9838 18.2952 27.5693 16.7097 27.5693 14.7566C27.5693 12.8034 25.9838 11.2179 24.0306 11.2179C22.0774 11.2179 20.492 12.8034 20.492 14.7566C20.492 16.7097 22.0774 18.2952 24.0306 18.2952Z" fill="white"/>
<path d="M13.9059 25.3726C15.859 25.3726 17.4445 23.7871 17.4445 21.8339C17.4445 19.8807 15.859 18.2952 13.9059 18.2952C11.9527 18.2952 10.3672 19.8807 10.3672 21.8339C10.3672 23.7871 11.9527 25.3726 13.9059 25.3726Z" fill="white"/>
<path d="M17.1298 37.6505C19.083 37.6505 20.6685 36.0651 20.6685 34.1119C20.6685 32.1587 19.083 30.5732 17.1298 30.5732C15.1766 30.5732 13.5911 32.1587 13.5911 34.1119C13.5911 36.0651 15.1766 37.6505 17.1298 37.6505Z" fill="white"/>
<path d="M30.9256 37.6505C32.8788 37.6505 34.4643 36.0651 34.4643 34.1119C34.4643 32.1587 32.8817 30.5732 30.9256 30.5732C28.9695 30.5732 27.3869 32.1587 27.3869 34.1119C27.3869 36.0651 28.9724 37.6505 30.9256 37.6505Z" fill="white"/>
<path d="M34.0966 25.3726C36.0497 25.3726 37.6352 23.7871 37.6352 21.8339C37.6352 19.8807 36.0497 18.2952 34.0966 18.2952C32.1434 18.2952 30.5579 19.8807 30.5579 21.8339C30.5579 23.7871 32.1404 25.3726 34.0966 25.3726Z" fill="white"/>
</g>
</g>
</svg>
